:SAMPLES-PER-SECOND 30
:FULLY-SPECIFIED
:DEGREES
1
root  73.1651 40.5346 -25.6785 173.297 -86.0928 -172.014
RightUpLeg  -0.549461 -7.2691 -4.66267
RightLeg  1.93762 -4.65283 3.36403
RightFoot  -0.763686 -0.00691181 0.00139034
RightToes  -1.74624e-010 0 -3.6325e-017
Spine  1.38459 0.402053 0.930546
Spine1  3.27918 0.574437 -0.870415
HEad  -4.51335 2.79085 1.65099
LeftShoulder1  0.738471 -0.0615247 -13.5572
LeftArm  -18.0107 9.51992 -2.45409
LeftForeArm  5.90046 -0.272772 -1.32468
LeftHand  -0.244104 0.0205437 5.32207
RightShoulder  0.473094 -0.632217 9.09138
RightArm  -20.3884 -2.48565 2.47904
RightForeArm  7.14107 1.03811 2.59171
RightHand  -1.09551 5.7995 -11.6403
LeftUpLeg  1.1781 5.18183 3.15116
LeftLeg  0.72564 14.3131 -3.97413
LeftFoot  -2.29168 -0.00792087 0.299321
LeftToes  1.28235e-010 -1.10989e-010 2.53219e-011
2
root  73.1633 40.5346 -25.6785 173.321 -86.0765 -172.03
RightUpLeg  -0.558388 -7.26289 -4.66228
RightLeg  1.93845 -4.64014 3.36005
RightFoot  -0.76466 -0.00495766 -0.0289514
RightToes  -1.74624e-010 0 -3.6325e-017
Spine  1.93952 0.471231 0.872135
Spine1  2.4958 0.643433 -0.864833
HEad  -4.64462 2.90403 1.72728
LeftShoulder1  0.728198 -0.0466695 -13.3363
LeftArm  -17.9503 9.59252 -2.6124
LeftForeArm  6.06771 -0.395679 -1.36081
LeftHand  -0.244104 0.0205437 5.32207
RightShoulder  0.444658 -0.83559 9.30088
RightArm  -20.1308 -2.50016 2.27555
RightForeArm  6.61646 1.17136 2.70717
RightHand  -1.06135 5.30036 -11.7889
LeftUpLeg  1.16797 5.17707 3.14535
LeftLeg  0.73541 14.3405 -3.96327
LeftFoot  -2.29863 -0.00917426 0.3188
LeftToes  1.28235e-010 -1.10989e-010 2.53219e-011
3
root  73.1594 40.5346 -25.6785 173.412 -86.0565 -172.102
RightUpLeg  -0.590811 -7.25352 -4.66191
RightLeg  1.9647 -4.6332 3.35018
RightFoot  -0.770481 -0.00305618 -0.058476
RightToes  -1.74624e-010 0 -3.6325e-017
Spine  2.43486 0.539088 0.807445
Spine1  1.7651 0.706807 -0.841326
HEad  -4.72386 2.9827 1.77251
LeftShoulder1  0.734467 -0.104727 -13.1696
LeftArm  -17.8245 9.71694 -2.69206
LeftForeArm  6.13955 -0.532199 -1.41837
LeftHand  -0.244104 0.0205437 5.32207
RightShoulder  0.416921 -1.02705 9.48424
RightArm  -19.8687 -2.49202 2.08305
RightForeArm  5.89931 1.27876 2.8324
RightHand  -1.01768 4.66182 -11.9976
LeftUpLeg  1.15503 5.1656 3.13436
LeftLeg  0.737119 14.3766 -3.95286
LeftFoot  -2.31523 -0.00862308 0.310234
LeftToes  1.28235e-010 -1.10989e-010 2.53219e-011
4
root  73.1542 40.5346 -25.6785 173.514 -86.0475 -172.198
RightUpLeg  -0.606262 -7.25574 -4.66597
RightLeg  1.99311 -4.62856 3.34529
RightFoot  -0.781697 -0.00247278 -0.0675346
RightToes  -1.74624e-010 0 -3.6325e-017
Spine  2.42108 0.539584 0.80998
Spine1  1.76745 0.706974 -0.840457
HEad  -4.674 2.96957 1.73678
LeftShoulder1  0.750178 -0.180271 -13.1847
LeftArm  -17.7284 9.78152 -2.64157
LeftForeArm  6.01893 -0.538418 -1.45215
LeftHand  -0.244104 0.0205437 5.32207
RightShoulder  0.413057 -1.0504 9.4887
RightArm  -19.7837 -2.44981 2.06311
RightForeArm  5.41995 1.31713 2.89313
RightHand  -0.989634 4.28898 -12.1037
LeftUpLeg  1.16152 5.16413 3.13012
LeftLeg  0.733848 14.3852 -3.96008
LeftFoot  -2.33036 -0.00677285 0.281479
LeftToes  1.28235e-010 -1.10989e-010 2.53219e-011
5
root  73.1506 40.5346 -25.6785 173.575 -86.0414 -172.271
RightUpLeg  -0.589811 -7.266 -4.6781
RightLeg  1.99889 -4.61372 3.34963
RightFoot  -0.786963 -0.00244525 -0.0679622
RightToes  -1.74624e-010 0 -3.6325e-017
Spine  2.25413 0.506481 0.845556
Spine1  2.04773 0.678816 -0.865434
HEad  -4.68184 2.97306 1.67974
LeftShoulder1  0.750729 -0.172637 -13.2468
LeftArm  -17.7145 9.74113 -2.59557
LeftForeArm  5.90179 -0.455704 -1.4532
LeftHand  -0.244104 0.0205437 5.32207
RightShoulder  0.419626 -1.00126 9.41299
RightArm  -19.8048 -2.42524 2.1376
RightForeArm  5.19563 1.36009 2.91066
RightHand  -0.974073 4.12216 -12.1178
LeftUpLeg  1.18292 5.1649 3.12857
LeftLeg  0.729397 14.3847 -3.96721
LeftFoot  -2.33407 -0.00450961 0.246307
LeftToes  1.28235e-010 -1.10989e-010 2.53219e-011
6
root  73.1497 40.5346 -25.6791 173.63 -86.0307 -172.331
RightUpLeg  -0.583366 -7.26966 -4.68268
RightLeg  1.99697 -4.59858 3.35182
RightFoot  -0.785182 -0.0025807 -0.065859
RightToes  -1.74624e-010 0 -3.6325e-017
Spine  2.34339 0.503266 0.827447
Spine1  1.98236 0.673008 -0.850736
HEad  -4.805 3.04968 1.6539
LeftShoulder1  0.739815 -0.116099 -13.2619
LeftArm  -17.7374 9.66136 -2.59546
LeftForeArm  5.94922 -0.394184 -1.44425
LeftHand  -0.244104 0.0205437 5.32207
RightShoulder  0.41388 -1.02812 9.35674
RightArm  -19.8425 -2.43238 2.21009
RightForeArm  5.26037 1.37943 2.89643
RightHand  -0.972755 4.10175 -12.1267
LeftUpLeg  1.19366 5.16375 3.12672
LeftLeg  0.720216 14.3978 -3.96334
LeftFoot  -2.32959 -0.00251217 0.215265
LeftToes  1.28235e-010 -1.10989e-010 2.53219e-011
7
root  73.1484 40.5346 -25.6816 173.679 -86.0274 -172.364
RightUpLeg  -0.600871 -7.26778 -4.68044
RightLeg  1.99646 -4.59806 3.35175
RightFoot  -0.792738 -0.00343127 -0.0526519
RightToes  -1.74624e-010 0 -3.6325e-017
Spine  2.53765 0.522095 0.762381
Spine1  1.72774 0.6769 -0.775184
HEad  -5.00641 3.16986 1.62275
LeftShoulder1  0.740636 -0.113922 -13.2997
LeftArm  -17.7446 9.63593 -2.55858
LeftForeArm  6.08984 -0.375901 -1.43501
LeftHand  -0.244104 0.0205437 5.32207
RightShoulder  0.400718 -1.09813 9.28861
RightArm  -19.9022 -2.43748 2.28019
RightForeArm  5.53505 1.30614 2.84668
RightHand  -0.988575 4.21514 -12.1798
LeftUpLeg  1.18447 5.16601 3.12821
LeftLeg  0.708503 14.3951 -3.97084
LeftFoot  -2.33129 -0.00338924 0.228895
LeftToes  1.28235e-010 -1.10989e-010 2.53219e-011
8
root  73.1472 40.5346 -25.6841 173.634 -86.0378 -172.306
RightUpLeg  -0.609121 -7.26887 -4.67602
RightLeg  2.00319 -4.60402 3.36133
RightFoot  -0.814592 -0.0047302 -0.0324832
RightToes  -1.74624e-010 0 -3.6325e-017
Spine  2.46654 0.500355 0.748302
Spine1  1.84689 0.643659 -0.722544
HEad  -5.30219 3.33964 1.54161
LeftShoulder1  0.755812 -0.166015 -13.4372
LeftArm  -17.7302 9.6886 -2.42625
LeftForeArm  6.10686 -0.38142 -1.42661
LeftHand  -0.244104 0.0205437 5.32207
RightShoulder  0.409918 -1.02563 9.16143
RightArm  -20.0484 -2.45376 2.36947
RightForeArm  5.6612 1.16705 2.76936
RightHand  -1.00243 4.27426 -12.274
LeftUpLeg  1.16319 5.1914 3.14519
LeftLeg  0.738651 14.3636 -3.98702
LeftFoot  -2.34765 -0.00721654 0.288375
LeftToes  1.28235e-010 -1.10989e-010 2.53219e-011
9
root  73.1463 40.5343 -25.6848 173.524 -86.0384 -172.2
RightUpLeg  -0.614169 -7.27466 -4.67358
RightLeg  2.02922 -4.59341 3.37183
RightFoot  -0.834752 -0.00478744 -0.0315945
RightToes  -1.74624e-010 0 -3.6325e-017
Spine  2.23394 0.442378 0.796888
Spine1  2.24618 0.587372 -0.739256
HEad  -5.65535 3.52772 1.43398
LeftShoulder1  0.768225 -0.20217 -13.5858
LeftArm  -17.6761 9.7857 -2.26178
LeftForeArm  5.92015 -0.438308 -1.44259
LeftHand  -0.244104 0.0205437 5.32207
RightShoulder  0.448756 -0.771964 9.03463
RightArm  -20.2661 -2.5503 2.43687
RightForeArm  5.60719 1.03285 2.67386
RightHand  -0.999532 4.1997 -12.3295
LeftUpLeg  1.13676 5.20198 3.15594
LeftLeg  0.809214 14.3607 -3.97102
LeftFoot  -2.3756 -0.0078874 0.2988
LeftToes  1.28235e-010 -1.10989e-010 2.53219e-011
10
root  73.1454 40.5326 -25.685 173.504 -86.0116 -172.187
RightUpLeg  -0.644292 -7.28264 -4.67665
RightLeg  2.09255 -4.5473 3.37586
RightFoot  -0.851838 -0.00282353 -0.0620883
RightToes  -1.74624e-010 0 -3.6325e-017
Spine  2.30396 0.433065 0.808306
Spine1  2.23442 0.58058 -0.751413
HEad  -5.76495 3.56745 1.37611
LeftShoulder1  0.77265 -0.224757 -13.5799
LeftArm  -17.579 9.90056 -2.20605
LeftForeArm  5.76582 -0.538687 -1.485
LeftHand  -0.244104 0.0205437 5.32207
RightShoulder  0.483252 -0.55807 9.01158
RightArm  -20.3832 -2.74333 2.40053
RightForeArm  5.85481 0.956054 2.58878
RightHand  -1.00114 4.28683 -12.2442
LeftUpLeg  1.1271 5.19275 3.15585
LeftLeg  0.851004 14.3938 -3.94428
LeftFoot  -2.4319 -0.00146922 0.207586
LeftToes  1.28235e-010 -1.10989e-010 2.53219e-011
11
root  73.1447 40.5288 -25.6836 173.528 -85.9784 -172.238
RightUpLeg  -0.647388 -7.32684 -4.69898
RightLeg  2.16072 -4.45255 3.40606
RightFoot  -0.897067 -0.000469129 -0.0986465
RightToes  -1.74624e-010 0 -3.6325e-017
Spine  2.79839 0.49703 0.777596
Spine1  1.63254 0.643226 -0.734058
HEad  -5.45927 3.33941 1.38073
LeftShoulder1  0.77566 -0.265459 -13.4256
LeftArm  -17.5554 10.0061 -2.32597
LeftForeArm  5.97085 -0.604042 -1.48681
LeftHand  -0.244104 0.0205437 5.32207
RightShoulder  0.485395 -0.563407 9.12771
RightArm  -20.2326 -2.95797 2.22439
RightForeArm  6.30636 1.01767 2.5936
RightHand  -1.02204 4.62393 -12.0911
LeftUpLeg  1.15964 5.26206 3.19997
LeftLeg  0.886718 14.3419 -4.0035
LeftFoot  -2.58046 0.00550665 0.132967
LeftToes  1.28235e-010 -1.10989e-010 2.53219e-011
12
root  73.1446 40.5207 -25.6778 173.324 -85.9458 -172.116
RightUpLeg  -0.566911 -7.42085 -4.75354
RightLeg  2.21383 -4.30624 3.48448
RightFoot  -0.991987 0.000564605 -0.114698
RightToes  -1.74624e-010 0 -3.6325e-017
Spine  3.32085 0.54385 0.858526
Spine1  1.13003 0.710978 -0.82479
HEad  -5.0864 2.98253 1.37082
LeftShoulder1  0.771644 -0.260253 -13.34
LeftArm  -17.7387 10.0314 -2.50171
LeftForeArm  6.48494 -0.627603 -1.3979
LeftHand  -0.244104 0.0205437 5.32207
RightShoulder  0.474355 -0.665502 9.35427
RightArm  -19.9218 -3.09721 2.00459
RightForeArm  6.0234 1.23383 2.72646
RightHand  -1.03456 4.73485 -12.1082
LeftUpLeg  1.19006 5.48114 3.33172
LeftLeg  1.1015 14.1419 -4.15697
LeftFoot  -2.87769 0.00365489 0.197467
LeftToes  1.28235e-010 -1.10989e-010 2.53219e-011
